{"title":"The Smurfs 2 2013 CAM XViD KingStoner","uid":8781091,"size":952158601,"categoryP":"video","categoryS":"movies","magnet":"?xt=urn:btih:d40432922167fcee618a5a270e1d82286ee000cb&amp;dn=The+Smurfs+2+2013+CAM+XViD+KingStoner&amp;tr=udp%3A%2F%2Ftracker.openbittorrent.com%3A80&amp;tr=udp%3A%2F%2Fopen.demonii.com%3A1337&amp;tr=udp%3A%2F%2Ftracker.coppersurfer.tk%3A6969&amp;tr=udp%3A%2F%2Fexodus.desync.com%3A6969","seeders":1,"leechers":0,"uploader":"TeX","files":8,"time":1375712973,"description":"[img]http://lookpic.com/O/i2/698/1RpCHaar.jpeg[/img]\n\n &lt;a href=&quot;\nhttp://www.imdb.com/title/tt2017020/&quot; rel=&quot;nofollow&quot; target=&quot;_NEW&quot;&gt;\nhttp://www.imdb.com/title/tt2017020/&lt;/a&gt;\nSource Used: 1400MB - VAiN [many thanks]\nRatings: 4.8/10 from 1,728 users Metascore: 34/100 \nReviews: 19 user | 53 critic | 29 from Metacritic.com\nGenres: Animation | Comedy | Family | Fantasy\nGeneral\nComplete name : C:The Smurfs 2 2013 CAM XViD KingStonerThe Smurfs 2 2013 CAM XViD KingStoner.avi\nFormat : AVI\nFormat/Info : Audio Video Interleave\nFile size : 908 MiB\nDuration : 1h 37mn\nOverall bit rate : 1 306 Kbps\nWriting application : MEncoder SVN-r33883(20110719-gcc4.5.2)\nWriting library : MPlayer\n\nVideo\nID : 0\nFormat : MPEG-4 Visual\nFormat profile : Advanced Simple@L5\nFormat settings, BVOP : 2\nFormat settings, QPel : No\nFormat settings, GMC : No warppoints\nFormat settings, Matrix : Default (H.263)\nCodec ID : XVID\nCodec ID/Hint : XviD\nDuration : 1h 37mn\nBit rate : 1 165 Kbps\nWidth : 576 pixels\nHeight : 304 pixels\nDisplay aspect ratio : 1.905\nOriginal display aspect ratio : 1.887\nFrame rate : 29.970 fps\nColor space : YUV\nChroma subsampling : 4:2:0\nBit depth : 8 bits\nScan type : Progressive\nCompression mode : Lossy\nBits/(Pixel*Frame) : 0.222\nStream size : 810 MiB (89%)\nWriting library : XviD 1.2.1 (UTC 2008-12-04)\n\nAudio\nID : 1\nFormat : MPEG Audio\nFormat version : Version 1\nFormat profile : Layer 3\nMode : Joint stereo\nCodec ID : 55\nCodec ID/Hint : MP3\nDuration : 1h 37mn\nBit rate mode : Constant\nBit rate : 128 Kbps\nChannel(s) : 2 channels\nSampling rate : 44.1 KHz\nCompression mode : Lossy\nDelay relative to video : 33ms\nStream size : 88.9 MiB (10%)\nAlignment : Aligned on interleaves\nInterleave, duration : 26 ms (0.78 video frame)\nInterleave, preload duration : 522 ms\nWriting library : LAME3.98\n\n\n\n[img]http://lookpic.com/O/i2/1008/XxBMOn5.jpeg[/img]","torrent":{"xt":"urn:btih:d40432922167fcee618a5a270e1d82286ee000cb","amp;dn":"The+Smurfs+2+2013+CAM+XViD+KingStoner","amp;tr":["udp%3A%2F%2Ftracker.openbittorrent.com%3A80","udp%3A%2F%2Fopen.demonii.com%3A1337","udp%3A%2F%2Ftracker.coppersurfer.tk%3A6969","udp%3A%2F%2Fexodus.desync.com%3A6969"],"infoHash":"d40432922167fcee618a5a270e1d82286ee000cb","infoHashBuffer":{"type":"Buffer","data":[212,4,50,146,33,103,252,238,97,138,90,39,14,29,130,40,110,224,0,203]},"announce":[],"urlList":[]}}